<svg xmlns="http://www.w3.org/2000/svg" version="1.1" width="53.289" height="16.922" viewBox="0 0 53.289 16.922">
  <rect x="0" y="0" width="53.289" height="16.922" fill="#000000" fill-opacity="0" stroke="none"></rect>
  <path d="M2 14.281V2.641H5.656L7.547 7.984Q7.664 8.352 7.812 8.945Q7.961 9.539 8.121 10.223Q8.281 10.906 8.414 11.539Q8.547 10.914 8.703 10.23Q8.859 9.547 9.008 8.953Q9.156 8.359 9.273 7.984L11.133 2.641H14.805V14.281H12.406V8.789Q12.406 8.352 12.426 7.672Q12.445 6.992 12.465 6.211Q12.484 5.43 12.492 4.695Q12.297 5.477 12.082 6.266Q11.867 7.055 11.672 7.715Q11.477 8.375 11.336 8.789L9.406 14.281H7.398L5.438 8.789Q5.305 8.391 5.113 7.75Q4.922 7.109 4.703 6.34Q4.484 5.57 4.281 4.789Q4.297 5.492 4.316 6.254Q4.336 7.016 4.352 7.684Q4.367 8.352 4.367 8.789V14.281ZM16.852 14.281V5.547H19.195V14.281ZM18.023 4.406Q17.492 4.406 17.117 4.055Q16.742 3.703 16.742 3.203Q16.742 2.703 17.117 2.352Q17.492 2 18.023 2Q18.555 2 18.934 2.352Q19.312 2.703 19.312 3.203Q19.312 3.703 18.934 4.055Q18.555 4.406 18.023 4.406ZM23.531 2.641V14.281H21.188V2.641ZM29.672 14.438Q28.406 14.438 27.426 14.004Q26.445 13.57 25.879 12.797Q25.312 12.023 25.297 11.016H27.695Q27.727 11.672 28.289 12.066Q28.852 12.461 29.68 12.461Q30.539 12.461 31.086 12.02Q31.633 11.578 31.633 10.867Q31.633 10.148 31.055 9.691Q30.477 9.234 29.461 9.234H28.383V7.461H29.461Q30.312 7.461 30.848 7.031Q31.383 6.602 31.383 5.898Q31.383 5.227 30.918 4.809Q30.453 4.391 29.695 4.391Q28.938 4.391 28.387 4.789Q27.836 5.188 27.82 5.867H25.523Q25.539 4.875 26.094 4.109Q26.648 3.344 27.59 2.914Q28.531 2.484 29.711 2.484Q30.906 2.484 31.805 2.922Q32.703 3.359 33.199 4.102Q33.695 4.844 33.695 5.75Q33.695 6.734 33.09 7.387Q32.484 8.039 31.516 8.227V8.312Q32.789 8.477 33.453 9.207Q34.117 9.938 34.117 11.023Q34.117 12.016 33.547 12.785Q32.977 13.555 31.973 13.996Q30.969 14.438 29.672 14.438ZM41.242 8.555V10.43H35.945V8.555ZM42.664 14.281 45.477 9.797 42.836 5.547H45.367L46.156 6.922Q46.391 7.359 46.598 7.785Q46.805 8.211 47 8.625Q47.195 8.211 47.402 7.781Q47.609 7.352 47.859 6.922L48.68 5.547H51.164L48.469 9.828L51.289 14.281H48.773L47.805 12.633Q47.562 12.211 47.352 11.789Q47.141 11.367 46.945 10.961Q46.758 11.367 46.559 11.789Q46.359 12.211 46.117 12.633L45.148 14.281Z" fill="#d65050" stroke="none"></path>
</svg>
