<svg xmlns="http://www.w3.org/2000/svg" version="1.1" width="58.547" height="16.922" viewBox="0 0 58.547 16.922">
  <rect x="0" y="0" width="58.547" height="16.922" fill="#000000" fill-opacity="0" stroke="none"></rect>
  <path d="M6.273 14.453Q4.961 14.453 4 13.887Q3.039 13.32 2.52 12.309Q2 11.297 2 9.953Q2 8.602 2.52 7.586Q3.039 6.57 4 6.004Q4.961 5.438 6.273 5.438Q7.586 5.438 8.547 6.004Q9.508 6.57 10.027 7.586Q10.547 8.602 10.547 9.953Q10.547 11.297 10.027 12.309Q9.508 13.32 8.547 13.887Q7.586 14.453 6.273 14.453ZM6.273 12.609Q7.211 12.609 7.688 11.852Q8.164 11.094 8.164 9.945Q8.164 8.789 7.688 8.035Q7.211 7.281 6.273 7.281Q5.336 7.281 4.863 8.035Q4.391 8.789 4.391 9.945Q4.391 11.094 4.863 11.852Q5.336 12.609 6.273 12.609ZM14 14.281 11.422 5.547H13.883L14.641 8.773Q14.797 9.5 14.984 10.336Q15.172 11.172 15.352 12.148Q15.531 11.195 15.73 10.355Q15.93 9.516 16.109 8.773L16.906 5.547H19.062L19.844 8.773Q20.008 9.516 20.207 10.352Q20.406 11.188 20.594 12.156Q20.758 11.188 20.938 10.352Q21.117 9.516 21.289 8.773L22.047 5.547H24.539L21.945 14.281H19.562L18.594 10.914Q18.43 10.352 18.277 9.648Q18.125 8.945 17.969 8.258Q17.82 8.945 17.664 9.652Q17.508 10.359 17.352 10.914L16.383 14.281ZM28.219 14.453Q26.969 14.453 26.141 13.793Q25.312 13.133 25.312 11.836Q25.312 10.859 25.781 10.305Q26.25 9.75 27 9.492Q27.75 9.234 28.609 9.156Q29.734 9.047 30.23 8.926Q30.727 8.805 30.727 8.375V8.336Q30.727 7.781 30.371 7.477Q30.016 7.172 29.359 7.172Q28.68 7.172 28.266 7.465Q27.852 7.758 27.711 8.18L25.562 7.82Q25.898 6.688 26.902 6.062Q27.906 5.438 29.367 5.438Q30.305 5.438 31.152 5.734Q32 6.031 32.535 6.684Q33.07 7.336 33.07 8.398V14.281H30.852V13.07H30.773Q30.453 13.68 29.82 14.066Q29.188 14.453 28.219 14.453ZM28.883 12.805Q29.703 12.805 30.223 12.328Q30.742 11.852 30.742 11.156V10.211Q30.602 10.312 30.285 10.387Q29.969 10.461 29.617 10.52Q29.266 10.578 29.008 10.609Q28.359 10.703 27.961 10.977Q27.562 11.25 27.562 11.773Q27.562 12.281 27.934 12.543Q28.305 12.805 28.883 12.805ZM35.07 14.281V5.547H37.414V14.281ZM36.242 4.406Q35.711 4.406 35.336 4.055Q34.961 3.703 34.961 3.203Q34.961 2.703 35.336 2.352Q35.711 2 36.242 2Q36.773 2 37.152 2.352Q37.531 2.703 37.531 3.203Q37.531 3.703 37.152 4.055Q36.773 4.406 36.242 4.406ZM42.875 14.453Q41.297 14.453 40.27 13.781Q39.242 13.109 39.016 11.891L41.195 11.516Q41.531 12.734 42.945 12.734Q43.617 12.734 44.004 12.48Q44.391 12.227 44.391 11.836Q44.391 11.172 43.266 10.938L41.758 10.625Q39.242 10.109 39.242 8.148Q39.242 6.891 40.25 6.164Q41.258 5.438 42.914 5.438Q44.469 5.438 45.391 6.07Q46.312 6.703 46.555 7.766L44.477 8.133Q44.336 7.688 43.961 7.402Q43.586 7.117 42.945 7.117Q42.367 7.117 41.977 7.363Q41.586 7.609 41.586 8Q41.586 8.328 41.84 8.559Q42.094 8.789 42.711 8.914L44.281 9.227Q46.781 9.734 46.781 11.586Q46.781 12.445 46.281 13.09Q45.781 13.734 44.898 14.094Q44.016 14.453 42.875 14.453ZM52.273 14.453Q50.961 14.453 50 13.887Q49.039 13.32 48.52 12.309Q48 11.297 48 9.953Q48 8.602 48.52 7.586Q49.039 6.57 50 6.004Q50.961 5.438 52.273 5.438Q53.586 5.438 54.547 6.004Q55.508 6.57 56.027 7.586Q56.547 8.602 56.547 9.953Q56.547 11.297 56.027 12.309Q55.508 13.32 54.547 13.887Q53.586 14.453 52.273 14.453ZM52.273 12.609Q53.211 12.609 53.688 11.852Q54.164 11.094 54.164 9.945Q54.164 8.789 53.688 8.035Q53.211 7.281 52.273 7.281Q51.336 7.281 50.863 8.035Q50.391 8.789 50.391 9.945Q50.391 11.094 50.863 11.852Q51.336 12.609 52.273 12.609Z" fill="#d65050" stroke="none"></path>
</svg>
