<svg xmlns="http://www.w3.org/2000/svg" version="1.1" width="75.57" height="22.172" viewBox="0 0 75.57 22.172">
  <rect x="0" y="0" width="75.57" height="22.172" fill="#000000" fill-opacity="0" stroke="none"/>
  <path d="M2 16.906V5.266H6.539Q7.867 5.266 8.797 5.77Q9.727 6.273 10.215 7.16Q10.703 8.047 10.703 9.195Q10.703 10.352 10.207 11.23Q9.711 12.109 8.766 12.605Q7.82 13.102 6.484 13.102H4.383V16.906ZM4.383 11.18H6.102Q7.195 11.18 7.719 10.625Q8.242 10.07 8.242 9.195Q8.242 8.312 7.719 7.773Q7.195 7.234 6.094 7.234H4.383ZM16.258 17.078Q14.922 17.078 13.953 16.531Q12.984 15.984 12.465 14.977Q11.945 13.969 11.945 12.586Q11.945 11.234 12.465 10.219Q12.984 9.203 13.926 8.633Q14.867 8.062 16.141 8.062Q17.281 8.062 18.211 8.547Q19.141 9.031 19.691 10.016Q20.242 11 20.242 12.492V13.148H14.266Q14.305 14.219 14.859 14.766Q15.414 15.312 16.297 15.312Q16.914 15.312 17.355 15.051Q17.797 14.789 17.984 14.281L20.109 14.68Q19.789 15.766 18.785 16.422Q17.781 17.078 16.258 17.078ZM14.281 11.68H17.984Q17.898 10.828 17.438 10.328Q16.977 9.828 16.164 9.828Q15.32 9.828 14.836 10.348Q14.352 10.867 14.281 11.68ZM29.93 20.172H27.586V15.508H27.508Q27.344 15.859 27.039 16.215Q26.734 16.57 26.242 16.812Q25.75 17.055 25.039 17.055Q24.031 17.055 23.227 16.535Q22.422 16.016 21.949 15.012Q21.477 14.008 21.477 12.555Q21.477 11.062 21.961 10.062Q22.445 9.062 23.25 8.562Q24.055 8.062 25.023 8.062Q25.766 8.062 26.258 8.312Q26.75 8.562 27.051 8.93Q27.352 9.297 27.508 9.641H27.625V8.172H29.93ZM25.758 15.172Q26.648 15.172 27.141 14.453Q27.633 13.734 27.633 12.547Q27.633 11.359 27.145 10.648Q26.656 9.938 25.758 9.938Q24.836 9.938 24.359 10.668Q23.883 11.398 23.883 12.547Q23.883 13.703 24.363 14.438Q24.844 15.172 25.758 15.172ZM34.938 17.016Q33.578 17.016 32.754 16.141Q31.93 15.266 31.93 13.727V8.172H34.273V13.32Q34.273 14.133 34.695 14.594Q35.117 15.055 35.852 15.055Q36.602 15.055 37.074 14.574Q37.547 14.094 37.547 13.227V8.172H39.898V16.906H37.68L37.648 15.094Q37.281 16.023 36.605 16.52Q35.93 17.016 34.938 17.016ZM41.891 16.906V8.172H44.234V16.906ZM43.062 7.031Q42.531 7.031 42.156 6.68Q41.781 6.328 41.781 5.828Q41.781 5.328 42.156 4.977Q42.531 4.625 43.062 4.625Q43.594 4.625 43.973 4.977Q44.352 5.328 44.352 5.828Q44.352 6.328 43.973 6.68Q43.594 7.031 43.062 7.031ZM50.133 17.078Q48.812 17.078 47.855 16.512Q46.898 15.945 46.379 14.934Q45.859 13.922 45.859 12.578Q45.859 11.227 46.379 10.211Q46.898 9.195 47.855 8.629Q48.812 8.062 50.133 8.062Q51.688 8.062 52.727 8.84Q53.766 9.617 54.016 10.969L51.836 11.375Q51.688 10.695 51.262 10.301Q50.836 9.906 50.156 9.906Q49.219 9.906 48.734 10.645Q48.25 11.383 48.25 12.57Q48.25 13.742 48.734 14.488Q49.219 15.234 50.156 15.234Q50.836 15.234 51.273 14.824Q51.711 14.414 51.852 13.711L54.031 14.109Q53.781 15.492 52.742 16.285Q51.703 17.078 50.133 17.078ZM57.984 11.852V16.906H55.641V5.266H57.938V9.844Q58.32 8.992 58.977 8.527Q59.633 8.062 60.602 8.062Q61.961 8.062 62.785 8.938Q63.609 9.812 63.609 11.352V16.906H61.258V11.758Q61.258 10.945 60.84 10.484Q60.422 10.023 59.68 10.023Q58.93 10.023 58.457 10.504Q57.984 10.984 57.984 11.852ZM68.609 17.016Q67.25 17.016 66.426 16.141Q65.602 15.266 65.602 13.727V8.172H67.945V13.32Q67.945 14.133 68.367 14.594Q68.789 15.055 69.523 15.055Q70.273 15.055 70.746 14.574Q71.219 14.094 71.219 13.227V8.172H73.57V16.906H71.352L71.32 15.094Q70.953 16.023 70.277 16.52Q69.602 17.016 68.609 17.016Z" fill="#d65050" stroke="none"/>
</svg>
