# Blender 5.1.2
# www.blender.org
mtllib ship.mtl
o Plane.001
v -0.000000 19.911770 -287.857147
v -0.000000 19.911770 -275.714294
v -0.000000 19.911770 -263.571442
v -0.000000 19.911770 -251.428574
v -0.000000 19.911770 -239.285721
v -0.000000 19.911770 -227.142868
v -0.000000 19.911770 -215.000015
v -0.000000 19.911770 -202.857162
v -0.000000 19.911770 -190.714310
v -0.000000 19.911770 -178.571457
v -0.000000 19.911770 -166.428604
v -0.000000 19.911770 -154.285751
v -0.000000 19.911770 -142.142883
v -0.000000 19.911770 -130.000015
v -0.000000 19.911770 -117.857155
v -0.000000 19.911770 -105.714294
v -0.000000 19.911770 -93.571434
v -0.000000 19.911770 -81.428574
v -0.000000 19.911770 -69.285713
v -0.000000 19.911770 -57.142857
v -0.000000 0.000000 -45.000000
v 0.000001 0.000000 -41.478260
v 0.000002 0.000000 -37.956520
v 0.000003 0.000000 -34.434784
v 0.000004 0.000000 -30.913044
v 0.000006 0.000000 -27.391304
v 0.000007 0.000000 -23.869564
v 0.000008 0.000000 -20.347824
v 0.000009 0.000000 -16.826084
v 0.000010 0.000000 -13.304344
v 0.000011 0.000000 -9.782604
v 0.000013 0.000000 -6.260864
v 0.000014 0.000000 -2.739124
v 0.000015 0.000000 0.782616
v 0.000016 0.000000 4.304356
v 0.000017 0.000000 7.826096
v 0.000018 0.000000 11.347832
v 49.000011 4.000028 12.374985
v -48.999989 3.999972 12.375015
v 0.000019 0.000000 14.869572
v 0.000021 0.000000 18.391312
v 0.000022 0.000000 21.913048
v 0.000023 0.000000 25.434784
v 0.000024 0.000000 28.956520
v 0.000025 0.000000 32.478256
v 0.000026 0.000000 36.000000
l 45 46
l 21 22
l 22 23
l 23 24
l 24 25
l 25 26
l 26 27
l 27 28
l 28 29
l 29 30
l 30 31
l 31 32
l 32 33
l 33 34
l 34 35
l 35 36
l 36 37
l 37 40
l 40 41
l 41 42
l 42 43
l 43 44
l 44 45
l 20 21
l 1 2
l 2 3
l 3 4
l 4 5
l 5 6
l 6 7
l 7 8
l 8 9
l 9 10
l 10 11
l 11 12
l 12 13
l 13 14
l 14 15
l 15 16
l 16 17
l 17 18
l 18 19
l 19 20
